<svg width="16" height="20" viewBox="0 0 16 20" fill="none" xmlns="http://www.w3.org/2000/svg">
<path d="M7.99999 0.588379C5.05881 0.588379 2.70587 2.94132 2.70587 5.8825V8.23544C1.70587 8.23544 0.941162 9.00014 0.941162 10.0001V17.6472C0.941162 18.6472 1.70587 19.4119 2.70587 19.4119H13.2941C14.2941 19.4119 15.0588 18.6472 15.0588 17.6472V10.0001C15.0588 9.00014 14.2941 8.23544 13.2941 8.23544V5.8825C13.2941 2.94132 10.9412 0.588379 7.99999 0.588379ZM13.8823 10.0001V17.6472C13.8823 18.0001 13.647 18.2354 13.2941 18.2354H2.70587C2.35293 18.2354 2.11763 18.0001 2.11763 17.6472V10.0001C2.11763 9.6472 2.35293 9.41191 2.70587 9.41191H3.2941H12.7059H13.2941C13.647 9.41191 13.8823 9.6472 13.8823 10.0001ZM3.88234 8.23544V5.8825C3.88234 3.58838 5.70587 1.76485 7.99999 1.76485C10.2941 1.76485 12.1176 3.58838 12.1176 5.8825V8.23544H3.88234Z" fill="black"/>
<path d="M7.99994 11.1768C6.99994 11.1768 6.23523 11.9415 6.23523 12.9415C6.23523 13.7062 6.70582 14.3532 7.4117 14.5885V15.8826C7.4117 16.2356 7.64699 16.4709 7.99994 16.4709C8.35288 16.4709 8.58817 16.2356 8.58817 15.8826V14.5885C9.29405 14.3532 9.76464 13.7062 9.76464 12.9415C9.76464 11.9415 8.99994 11.1768 7.99994 11.1768ZM7.99994 13.5297C7.64699 13.5297 7.4117 13.2944 7.4117 12.9415C7.4117 12.5885 7.64699 12.3532 7.99994 12.3532C8.35288 12.3532 8.58817 12.5885 8.58817 12.9415C8.58817 13.2944 8.35288 13.5297 7.99994 13.5297Z" fill="black"/>
</svg>
